<?xml version="1.0" encoding="UTF-8"?>
<svg id="Layer_1" data-name="Layer 1" xmlns="http://www.w3.org/2000/svg" viewBox="0 0 110 90">
  <defs>
    <style>
      .cls-1 {
        fill: #9b9a9a;
      }

      .cls-2 {
        fill: none;
      }
    </style>
  </defs>
  <rect class="cls-2" width="110" height="90"/>
  <rect class="cls-2" width="110" height="90"/>
  <path class="cls-1" d="M30.99,27.82c-.48-1.85,.57-2.87,1.81-3.99,3.87-3.49,8.21-5.83,13.5-6.14,.5-.03,1.17-.33,1.42,.2,.26,.56-.45,.87-.8,1.19-1.81,1.68-3.51,3.37-6.03,4.22-3,1.02-5.05,3.64-7.55,5.52-.66,.5-1.24,1.64-2.08,1.23-.72-.35-.08-1.5-.27-2.24Zm67.58,31.22c-.05,4.07-2.79,6.39-6.92,6.5-3.02,.08-5.72-.42-7.32-3.35-.72-1.31-.96-2.74-.87-4.22,.06-.97-.27-1.41-1.28-1.34-.64,.05-1.29,.07-1.92,0-2.47-.3-4.14,.13-5.27,2.91-1.26,3.12-4.27,4.5-7.71,4.4-.98-.03-1.54,.13-2.06,1.07-2.65,4.76-7.39,6.11-12.2,3.51-.81-.44-1.31-.35-2.03,.11-4.37,2.84-8.48,2.39-12.15-1.25-2.73-2.71-5.48-5.4-8.22-8.09-.42-.41-.84-.82-1.3-1.16-.74-.55-1.6-1.3-2.49-.9-.71,.31-.3,1.37-.37,2.09-.42,3.91-2.88,6.16-6.87,6.2-1.57,.02-3.15,.07-4.61-.68-2.5-1.28-3.58-3.41-3.6-6.11-.04-4.66-.01-9.32-.01-13.98,0-4.55,0-9.09,0-13.64,0-3.13,1.59-4.69,4.74-4.7,2.91,0,5.83,.1,8.74-.04,1.5-.07,1.7,.51,1.69,1.79-.05,7.52,0,15.03-.05,22.55,0,1.27,.17,2.01,1.66,2.25,1.93,.31,3.52,1.48,4.91,2.85,2.87,2.82,5.73,5.64,8.59,8.46,2.92,2.88,5.8,2.67,8.21-.61,1.03-1.4,2.46-1.48,3.85-.14,.98,.94,1.93,1.84,3.39,1.95,2.5,.18,4.37-1.26,4.83-3.78,.57-3.1,1.1-3.41,4.03-2.34,1.99,.73,4.12,.11,5.3-1.54,1.3-1.81,1.29-3.71-.34-5.41-3.66-3.83-7.45-7.55-11.16-11.33-.65-.66-1.13-.56-1.76,.04-1.64,1.57-3.33,3.09-5.02,4.61-5.37,4.82-13.4,2.62-15.12-4.2-.86-3.41,.02-6.46,2.61-8.93,3.54-3.37,7.07-6.76,10.64-10.11,6.42-6.02,16.1-6.44,23-1.02,.73,.58,1.36,1.33,2.16,1.77,2.53,1.39,3.03,3.57,2.66,6.17-.05,.33,.13,.74-.24,.94-.38,.2-.66-.14-.91-.35-1.95-1.57-3.9-3.15-5.81-4.76-5.51-4.63-13.01-4.43-18.23,.52-3.38,3.2-6.76,6.42-10.13,9.63-2.28,2.18-2.48,5.01-.51,7.13,1.96,2.11,4.64,2.2,6.97,.11,3.29-2.95,6.52-5.98,9.77-8.99,.92-.85,1.87-1.44,3.09-.55,1.17,.87,1.28,2.41,.02,3.43-.98,.8-.64,1.19,.03,1.86,3.2,3.15,6.36,6.33,9.53,9.5,.86,.86,1.93,1.64,2.35,2.78,.6,1.67,1.74,1.96,3.27,1.81,1.72-.17,3.96,.73,5.02-.39,.98-1.03,.26-3.23,.27-4.91,.03-6.35,.04-12.7-.02-19.05-.01-1.29,.2-1.84,1.68-1.77,3.02,.13,6.06,.02,9.09,.04,2.68,.02,4.37,1.49,4.39,4.14,.06,9.5,.1,19-.01,28.49ZM22.22,32.12c0-.6,.38-1.59-.79-1.54-1.95,.08-3.93-.31-5.86,.23-.25,.37-.16,.78-.16,1.18,0,8.81,0,17.61,0,26.42,0,.4-.08,.82,.16,1.18,.82,2.24,2.74,1.79,4.43,1.74,1.45-.04,2.22-.89,2.24-2.36,.01-1.1,0-2.21,0-3.31,0-7.85,0-15.7-.01-23.55Zm70.31-1.58c-1.21,.13-2.45,.06-3.67,.01-.92-.04-1.22,.36-1.21,1.24,.02,9.03,0,18.06,.02,27.08,0,.93,.34,1.69,1.21,2.16,2.79,1.53,5.57,0,5.59-3.1,.03-4.25,0-8.5,0-12.76,0-4.25-.08-8.51,.04-12.75,.04-1.6-.47-2.04-1.98-1.89Z"/>
</svg>