<?xml version="1.0" encoding="UTF-8"?>
<svg id="Layer_1" data-name="Layer 1" xmlns="http://www.w3.org/2000/svg" viewBox="0 0 110 90">
  <defs>
    <style>
      .cls-1 {
        fill: #9b9a9a;
      }

      .cls-2 {
        fill: none;
      }
    </style>
  </defs>
  <rect class="cls-2" width="110" height="90"/>
  <rect class="cls-2" width="110" height="90"/>
  <path class="cls-1" d="M98.87,30.04c0-2-.64-2.55-2.69-2.56-3.63-.01-7.28-.22-10.89,.06-3.48,.27-5.99-.88-8.53-3.25-8.27-7.71-19.91-7.48-28.19,.28-2.95,2.76-5.89,5.52-8.81,8.31-2.07,1.97-3.41,4.36-3.42,7.26,0,4.01,1.75,7.18,5.39,8.96,3.65,1.79,7.28,1.53,10.53-1.09,1.59-1.28,3.08-2.69,4.56-4.11,.69-.67,1.14-.72,1.85,0,3.11,3.18,6.3,6.28,9.42,9.45,1.45,1.47,1.57,3.09,.45,4.57-1,1.31-2.65,1.59-4.42,.75-2.87-1.37-4.78-.41-5.29,2.71-.29,1.75-1.35,2.83-2.93,3.4-1.51,.54-2.88,.12-4.04-.98-.46-.45-.9-.93-1.37-1.36-1.84-1.68-4.19-1.29-5.44,.88-1.12,1.95-2.44,2.18-4.05,.63-1.89-1.83-3.77-3.68-5.59-5.58-3.12-3.28-6.28-6.49-11.12-7.05-.34-.54-.18-1.14-.18-1.7-.02-4.6-.02-9.2,0-13.8,0-.56-.19-1.17,.2-1.69,.46-.07,.92-.22,1.37-.19,2.99,.17,5.43-.88,7.57-2.99,2.29-2.25,4.7-4.41,7.95-5.27,.26-.07,.5-.3,.7-.5,1.78-1.77,3.56-3.55,5.33-5.33,.24-.24,.64-.46,.52-.84-.16-.5-.69-.35-1.06-.35-2.53-.04-5,.27-7.44,.96-4.01,1.13-7.22,3.52-10.12,6.38-1.11,1.11-2.3,1.58-3.89,1.53-3.8-.1-7.6,0-11.41-.05-1.1-.02-1.94,.29-2.54,1.21-.27,.43-.18,.91-.18,1.37,0,9.39,0,18.78,0,28.17,0,.46-.09,.94,.21,1.36,.82,1.71,2.11,2.79,4.05,2.87,1.52,.06,3.05,.08,4.57,0,2.24-.12,3.5-1.12,4.09-3.39,.26-1.02,.74-1,1.5-.76,.7,.22,1.21,.68,1.71,1.19,3.02,3.03,6.03,6.06,9.07,9.05,3.39,3.34,7.2,3.86,11.17,1.49,.77-.46,1.3-.43,2.06-.01,4.94,2.72,10.56,1.45,13.79-3.16,.71-1.02,1.48-1.25,2.61-1.25,3.38-.02,6.14-1.35,7.98-4.26,.55-.86,1.19-1.13,2.16-1.11,2.4,.05,4.8,.01,7.2,.02,1.61,0,3.28-.31,4.44,1.33,.26,.36,.92,.47,1.41,.62,1.72,.52,3.49,.26,5.23,.24,2.84-.03,4.49-1.66,4.5-4.49,.04-9.3,.03-18.6,0-27.9ZM17.84,58.09c-1.44,.05-2.39-.81-2.37-2.2,.02-1.42,.8-2.14,2.19-2.19,1.43-.05,2.15,.71,2.29,2.17-.12,1.22-.63,2.17-2.12,2.22Zm67.96-19.37c.07,1.69,.02,3.39,.02,5.08,0,2.75-.09,5.5,.03,8.24,.06,1.45-.45,1.78-1.79,1.72-2.39-.1-4.8-.06-7.2-.01-.94,.02-1.49-.16-1.77-1.19-.41-1.55-1.41-2.78-2.55-3.91-3-2.96-5.95-5.96-8.95-8.91-.65-.64-.94-1.11-.37-2.06,.91-1.51,.48-3.02-.86-4.03-1.31-.99-2.81-.97-4.16,.26-3.16,2.87-6.23,5.83-9.38,8.71-1.77,1.62-4.33,1.41-5.52-.38-.95-1.42-.75-3.11,.64-4.44,3.21-3.07,6.4-6.16,9.71-9.12,5.33-4.77,12.96-4.77,18.39-.1,1.29,1.11,2.61,2.18,3.78,3.4,1.45,1.52,3.13,2.07,5.2,1.95,1.5-.09,3.46-.67,4.42,.26,1.04,1,.28,2.98,.34,4.53Zm6.57,19.37c-1.44-.02-2.14-.86-2.27-2.17-.12-1.27,1.01-2.28,2.37-2.22,1.42,.06,2.15,.81,2.12,2.23-.04,1.41-.81,2.12-2.21,2.16Z"/>
</svg>