<?xml version="1.0" encoding="UTF-8"?>
<svg id="Layer_1" data-name="Layer 1" xmlns="http://www.w3.org/2000/svg" viewBox="0 0 110 90">
  <defs>
    <style>
      .cls-1 {
        fill: #9b9a9a;
      }

      .cls-2 {
        fill: none;
      }
    </style>
  </defs>
  <rect class="cls-2" width="110" height="90"/>
  <rect class="cls-2" width="110" height="90"/>
  <path class="cls-1" d="M101.09,41.16c0-4.1,0-8.2-.01-12.3,0-1.18-.65-2.1-1.78-2.47-.41-.13-.87-.15-1.31-.15-3.58,0-7.15,0-10.73,0-.9,0-1.81,0-2.71,0-.1,0-.24-.03-.3-.09-.36-.4-.68-.83-1.04-1.23-1.23-1.39-2.46-2.78-3.72-4.16-1.37-1.5-3.02-2.65-4.82-3.58-.57-.29-1.21-.46-1.83-.63-.62-.17-1.25-.35-1.89-.42-.85-.09-1.72-.11-2.58-.12-2.24,0-4.49,0-6.74,.02-.37,0-.74,.02-1.09,.09-.63,.12-1.26,.27-1.87,.45-.54,.15-1.08,.31-1.58,.55-.63,.3-1.22,.67-1.81,1.04-.17,.1-.28,.09-.43,0-1.12-.66-2.22-1.35-3.5-1.64-.29-.07-.59-.09-.87-.18-.81-.26-1.64-.33-2.48-.31-2.43,.06-4.87-.2-7.29,.16-.51,.08-1.02,.19-1.49,.36-.74,.25-1.45,.58-2.15,.93-.7,.35-1.43,.67-2.04,1.16-1.18,.95-2.31,1.97-3.41,3.01-1.07,1.02-2.08,2.11-3.12,3.16-.09,.09-.24,.17-.37,.17-3,.01-6.01,.01-9.01,0-2.42,0-4.85,0-7.27,0-.65,0-1.29,.06-1.81,.48-.61,.5-1.08,1.09-1.09,1.93,0,.55-.02,1.09-.02,1.64,0,3.93,0,7.86,0,11.79h0c0,.12,0,.24,0,.36,0,2.41,0,4.82,0,7.24,0,1.94,0,3.87,.04,5.81,0,.41,.09,.85,.27,1.2,.53,.98,1.36,1.51,2.51,1.51,4.62,0,9.24,0,13.86,0,.14,0,.32,.07,.42,.17,.87,.83,1.72,1.68,2.58,2.52,1.7,1.68,3.38,3.37,5.1,5.03,1.73,1.66,3.46,3.32,5.24,4.92,2.33,2.08,5.07,3.42,8.09,4.21,.42,.11,.86,.12,1.29,.19,1.56,.27,3.1,.21,4.64-.19,1.01-.26,1.97-.6,2.9-1.06,.19-.1,.41-.2,.62-.19,2.07,.07,3.99-.43,5.79-1.42,1.14-.63,2.14-1.44,2.98-2.43,.18-.21,.38-.37,.65-.46,.7-.23,1.42-.45,2.08-.77,1.88-.89,3.38-2.26,4.64-3.9,.19-.25,.4-.4,.73-.45,.93-.15,1.82-.42,2.67-.84,2.26-1.1,3.97-2.75,4.99-5.06,.1-.23,.24-.28,.46-.28,2.48,0,4.97,0,7.45,0,3.11,0,6.21,0,9.32,0,.28,0,.58,.02,.84-.07,1.18-.43,2.02-1.24,2.01-2.78-.02-4.31,0-8.61,0-12.92ZM16.56,51.81c-1.67-.03-2.53-1.29-2.54-2.48,0-1.67,1.08-2.69,2.69-2.64,1.59,.03,2.46,1.21,2.42,2.73-.04,1.37-1,2.41-2.57,2.39Zm60.19,1.74c-.12,1.3-.66,2.41-1.65,3.27-.64,.56-1.39,.93-2.22,1.17-.92,.26-1.84,.22-2.76,.15-.19-.02-.37-.15-.57-.23-.02,.07-.05,.13-.06,.2-.06,.95-.51,1.73-1.05,2.48-.77,1.08-1.75,1.91-2.97,2.42-.87,.36-1.78,.52-2.72,.46-.27-.02-.39,.06-.48,.32-.49,1.43-1.52,2.41-2.82,3.09-.52,.27-1.1,.48-1.73,.54-.66,.07-1.3,.05-1.94-.05-.03,0-.07,0-.1-.02-.52-.28-.87-.02-1.26,.3-.57,.48-1.23,.79-1.95,1.01-1.16,.35-2.34,.45-3.53,.3-1.1-.13-2.17-.42-3.18-.9-1.98-.93-3.64-2.28-5.18-3.81-3.66-3.62-7.34-7.2-11.01-10.8-.54-.53-1.12-1-1.83-1.32-.56-.25-1.14-.27-1.72-.3-.5-.03-1.01-.02-1.51,0-.2,0-.26-.06-.26-.27,0-6.91,0-13.81,.01-20.72,0-.14,0-.27,0-.41,0-.35,0-.36,.37-.36,1.81,0,3.62,0,5.43,0,.27,0,.46-.07,.65-.26,1.96-1.96,3.91-3.93,5.89-5.87,.5-.49,1.03-.99,1.63-1.36,.68-.42,1.43-.72,2.16-1.03,1.04-.43,2.15-.43,3.25-.44,1.36,0,2.71-.04,4.07-.02,.99,.01,1.95,.25,2.89,.58,.02,0,.03,0,.05,.02q.68,.24,.22,.77c-1.65,1.93-3.31,3.85-4.96,5.78-.79,.93-1.58,1.85-2.31,2.83-.9,1.2-1.45,2.54-1.63,4.05-.19,1.57-.07,3.1,.45,4.58,.64,1.81,1.76,3.3,3.23,4.52,1.01,.84,2.09,1.53,3.36,1.9,1.6,.46,3.22,.71,4.9,.5,2.88-.38,5.16-1.78,7.04-3.93,1.51-1.73,3.06-3.42,4.6-5.12,.04-.04,.08-.08,.15-.15,.93,1.03,1.88,2,2.74,3.04,1.43,1.72,2.81,3.47,4.19,5.23,.97,1.23,1.89,2.48,2.85,3.71,.96,1.23,1.39,2.62,1.25,4.18Zm9-19.42c0,4.46-.01,8.92-.02,13.38,0,1.36,0,2.71,0,4.07,0,.17-.03,.24-.22,.24-1.12,0-2.24,0-3.35,0-.21,0-.3-.06-.33-.28-.25-1.78-.94-3.39-2.01-4.83-1.21-1.63-2.44-3.24-3.66-4.86-1.68-2.23-3.45-4.38-5.37-6.41-.56-.6-1.09-1.22-1.63-1.83-.15-.16-.18-.33-.13-.54,.34-1.45-.78-2.72-1.92-2.93-1.04-.19-1.91,.18-2.62,.94-.72,.78-1.41,1.59-2.12,2.39-1.55,1.75-3.1,3.51-4.66,5.26-.52,.58-1.04,1.16-1.62,1.66-1.09,.93-2.39,1.25-3.81,1.18-1.24-.06-2.36-.45-3.33-1.22-1-.8-1.76-1.78-1.94-3.11-.17-1.23,0-2.4,.79-3.39,.83-1.05,1.71-2.06,2.59-3.07,2.04-2.37,4.08-4.75,6.13-7.11,1.17-1.35,2.64-2.19,4.42-2.47,.44-.07,.88-.08,1.33-.08,2.33,0,4.66,0,6.99,0,2.04,0,3.82,.71,5.42,1.97,.75,.6,1.34,1.33,1.96,2.04,1.78,2.03,3.55,4.06,5.33,6.08,.07,.08,.22,.13,.33,.13,1.02,0,2.05,0,3.07,0,.12,0,.25,.02,.39,.03,0,.96,0,1.86,0,2.76Zm7.72,17.68c-1.63,0-2.58-1.12-2.6-2.44-.02-1.63,.88-2.65,2.55-2.68,1.61-.03,2.51,1.07,2.55,2.63-.02,1.3-.89,2.49-2.5,2.49Z"/>
</svg>