<?xml version="1.0" encoding="UTF-8"?>
<svg id="Layer_1" data-name="Layer 1" xmlns="http://www.w3.org/2000/svg" viewBox="0 0 110 90">
  <defs>
    <style>
      .cls-1 {
        fill: #9b9a9a;
      }

      .cls-2 {
        fill: none;
      }
    </style>
  </defs>
  <rect class="cls-2" width="110" height="90"/>
  <rect class="cls-2" width="110" height="90"/>
  <path class="cls-1" d="M50.74,18.74c-.82,1.13-1.61,1.95-2.98,1.86-5.54-.37-10.21,1.56-14.18,5.35-.73,.69-1.55,1.28-2.34,1.91-.08,.07-.22,.07-.53,.15-.17-1.05-.38-1.95,.55-2.86,5.25-5.12,11.53-7.26,18.8-6.65,.16,.01,.32,.11,.68,.24Zm48.64,41.73c-.02,3.11-1.67,4.59-4.83,4.61-1.9,.01-3.8,.01-5.69,0-3.17-.02-4.92-1.65-4.84-4.79,.04-1.56-.37-2.23-1.96-1.95-.29,.05-.6,.04-.89,0-2.59-.29-4.45-.05-5.49,3.12-1.16,3.51-5.18,4.91-8.9,3.84-1.05-.3-1.52-.28-1.92,.92-1.73,5.26-7.48,7.04-11.89,3.65-1.12-.86-1.79-.92-3-.13-3.51,2.3-7.41,1.82-10.39-1.1-2.71-2.66-5.39-5.35-8.06-8.05-1.17-1.18-2.51-1.93-4.19-2.11-.87-.09-1.27,.03-1.33,1.06-.27,4.58-1.34,5.55-5.88,5.55-1.72,0-3.44,.04-5.16,0-2.64-.08-4.34-1.74-4.35-4.39-.03-9.67-.03-19.33,0-29,0-2.37,1.66-4.18,3.93-4.22,3.67-.07,7.35,.03,11.02,.05,.32,.62,.16,1.28,.16,1.92,.01,8.17,0,16.34,.02,24.51,0,.63-.21,1.3,.2,1.89,.2,.12,.39,.35,.6,.36,4.12,.12,6.51,3.04,9.13,5.59,1.74,1.7,3.43,3.44,5.16,5.15,2.99,2.94,6.48,2.93,9.33-.13,.99-1.07,1.69-.75,2.5,.09,1.16,1.21,2.34,2.33,4.16,2.5,3.78,.34,6.57-2.23,6.46-6.02-.02-.63-.27-1.34,.48-1.75,.76-.42,1.2,.19,1.71,.56,2.68,1.98,5.62,1.79,7.68-.48,2.1-2.31,2.18-5.3-.11-7.69-4.32-4.49-8.79-8.83-13.16-13.25-.68-.69-1.13-.53-1.76,.07-1.93,1.84-3.91,3.63-5.87,5.43-3.54,3.27-8.43,3.18-11.6-.21-3.11-3.33-2.93-8.44,.45-11.65,3.87-3.67,7.74-7.33,11.65-10.96,6.96-6.48,16.05-6.62,23.28-.4,.72,.62,1.4,1.3,2.17,1.83,1.26,.87,1.46,2,1.01,3.57-1.74-1.49-3.38-2.91-5.04-4.32-5.66-4.8-13.82-4.78-19.33,.17-4.14,3.72-8.18,7.57-12.21,11.42-2.78,2.66-2.9,6.48-.42,9.04,2.4,2.48,6.04,2.37,8.88-.27,2.91-2.7,5.82-5.4,8.74-8.09,.43-.4,.88-.8,1.36-1.15,.47-.34,1-.42,1.44,.06,.44,.49,.2,.94-.07,1.45-.41,.79-1.98,.94-1.49,2.09,.34,.82,1.25,1.4,1.91,2.07,3.58,3.63,7.17,7.26,10.76,10.88,1.01,1.02,1.98,2.06,2.43,3.46,.27,.85,.85,1,1.64,.98,1.54-.04,3.09-.09,4.62,.01,1.29,.09,1.58-.4,1.58-1.62-.05-8.42,.03-16.84-.07-25.26-.02-1.71,.51-2.05,2.08-1.98,2.9,.12,5.81,.03,8.72,.04,2.96,0,4.65,1.5,4.66,4.38,.05,9.55,.05,19.1,0,28.64ZM24.01,31c0-1.1-.22-1.6-1.47-1.54-2.37,.11-4.74,0-7.11,.04-1.92,.02-2.78,.79-2.78,2.66-.03,9.36-.03,18.72,0,28.08,0,2.02,.79,2.73,2.85,2.78,1.54,.04,3.08,.01,4.62,0,3.35,0,3.87-.52,3.88-3.95,0-4.56,0-9.12,0-13.68,0-4.8-.02-9.6,.02-14.39Zm73.38,13.92c0-4.15,0-8.3,0-12.46,0-1.31-.24-2.76-1.78-2.85-3.17-.18-6.37-.37-9.54,.11-.23,.38-.16,.8-.16,1.21,0,9.69,0,19.39,0,29.08,0,.41-.09,.83,.16,1.21,.45,1.32,1.44,1.8,2.75,1.8,1.66,0,3.32,0,4.98,0,2.95,0,3.58-.62,3.58-3.51,0-4.86,0-9.73,0-14.59Z"/>
</svg>