<?xml version="1.0" encoding="UTF-8"?>
<svg id="Layer_1" data-name="Layer 1" xmlns="http://www.w3.org/2000/svg" viewBox="0 0 162.64 120.51">
  <defs>
    <style>
      .cls-1 {
        fill: #d3d3d3;
      }

      .cls-1, .cls-2 {
        isolation: isolate;
      }

      .cls-2 {
        fill: #010101;
        opacity: .05;
        stroke: #010101;
        stroke-miterlimit: 10;
        stroke-width: .15px;
      }
    </style>
  </defs>
  <path class="cls-2" d="M162.56,.27H23.19c-.82,0-1.58-.08-2.32-.2L4.02,.58S49.38,23.76,103.66,26.29c0,0,32.15-.64,58.91,1.92V.27Z"/>
  <path class="cls-1" d="M162.56,.27H31.67c17.87,7.95,46.51,18.49,78.75,21.87,0,0,27.13,1.03,52.14,4.39V.27Z"/>
  <path class="cls-2" d="M1.23,120.37H107.89c-18.02-5.83-50.19-7.73-50.19-7.73-22.22-1.25-42.41-7.19-57.63-13.16v20.95c.38-.03,.76-.06,1.16-.06Z"/>
  <path class="cls-1" d="M1.23,120.37H82.87c-15.63-3.3-31.59-4.95-31.59-4.95-19.4-1.96-37.08-7.43-51.2-13.23v18.24c.38-.03,.76-.06,1.16-.06Z"/>
</svg>