<?xml version="1.0" encoding="UTF-8"?>
<svg id="Layer_1" data-name="Layer 1" xmlns="http://www.w3.org/2000/svg" viewBox="0 0 162.28 120">
  <defs>
    <style>
      .cls-1, .cls-2 {
        fill: #fff;
      }

      .cls-3 {
        stroke-width: 4px;
      }

      .cls-3, .cls-4, .cls-2, .cls-5 {
        stroke-miterlimit: 10;
      }

      .cls-3, .cls-4, .cls-5 {
        fill: none;
      }

      .cls-3, .cls-5 {
        stroke: #515251;
      }

      .cls-4 {
        stroke-width: .5px;
      }

      .cls-4, .cls-2 {
        stroke: #a4a4a3;
      }

      .cls-6 {
        fill: #e0dede;
      }

      .cls-2 {
        stroke-width: .25px;
      }

      .cls-7 {
        fill: #515351;
      }
    </style>
  </defs>
  <rect class="cls-1" x=".28" width="162" height="120"/>
  <rect class="cls-6" x=".28" width="162" height="120"/>
  <rect class="cls-1" x=".28" width="162" height="120"/>
  <rect class="cls-6" width="162.28" height="119.89"/>
  <line class="cls-3" x1="66.68" y1="31.57" x2="95.89" y2="31.57"/>
  <line class="cls-5" x1="56.21" y1="44.9" x2="69.99" y2="44.9"/>
  <line class="cls-4" x1="56.21" y1="39.66" x2="106.36" y2="39.66"/>
  <line class="cls-4" x1="56.21" y1="90.26" x2="106.36" y2="90.26"/>
  <rect class="cls-7" x="56.21" y="74.84" width="50.15" height="7.49" rx="1.36" ry="1.36"/>
  <rect class="cls-2" x="56.21" y="48.49" width="50.15" height="6.89" rx=".98" ry=".98"/>
  <line class="cls-5" x1="56.21" y1="60.77" x2="69.99" y2="60.77"/>
  <line class="cls-5" x1="56.21" y1="85.77" x2="69.99" y2="85.77"/>
  <line class="cls-5" x1="91.69" y1="85.77" x2="105.47" y2="85.77"/>
  <line class="cls-5" x1="69.52" y1="94.9" x2="93.04" y2="94.9"/>
  <rect class="cls-2" x="56.21" y="64.37" width="50.15" height="6.89" rx=".98" ry=".98"/>
</svg>