<?xml version="1.0" encoding="UTF-8"?>
<svg id="Layer_1" data-name="Layer 1" xmlns="http://www.w3.org/2000/svg" viewBox="0 0 110 90">
  <defs>
    <style>
      .cls-1 {
        fill: #f2622a;
      }

      .cls-2 {
        fill: #f68620;
      }

      .cls-3 {
        fill: none;
      }
    </style>
  </defs>
  <rect class="cls-3" width="110" height="90"/>
  <path class="cls-2" d="M22.09,79.78c-2.33-.5-3.32-2.32-3.28-4.32,.22-12.48-1.44-25.07,.82-37.41,2.44-13.34,10.7-22.43,23.58-26.65,11.99-3.93,23.22-1.98,33.08,6.26,1.77,2.59,1.97,5.39,1.52,8.45-3.28,22.09-15.03,38.25-34.23,49.25-6.68,3.82-13.97,4.68-21.48,4.43Z"/>
  <path class="cls-1" d="M22.09,79.78c25.93-2.57,49.11-24.88,53.15-51.25,.55-3.59,.71-7.25,1.05-10.87,12,8.07,16.92,26.94,10.48,41.19-6.35,14.04-17.51,21.18-32.83,21.59-9.27,.25-18.55,.06-27.83,.03-1.35,0-2.83,.44-4.02-.68Z"/>
</svg>