<?xml version="1.0" encoding="UTF-8"?>
<svg id="Layer_1" data-name="Layer 1" xmlns="http://www.w3.org/2000/svg" viewBox="0 0 110 90">
  <defs>
    <style>
      .cls-1 {
        fill: #3a3a39;
      }

      .cls-2 {
        fill: #9b9a9a;
        isolation: isolate;
        opacity: .4;
      }

      .cls-3 {
        fill: none;
      }
    </style>
  </defs>
  <rect class="cls-3" width="110" height="90"/>
  <path class="cls-2" d="M55.3,72.86c-5.42-.02-10.11-.83-14.68-2.31-.98-.32-1.66-.28-2.56,.35-5.46,3.82-11.41,6.39-18.19,6.61-.76,.02-1.65,.23-2.09-.66s.3-1.42,.77-2.02c2.88-3.65,5.47-7.45,6.91-11.94,.29-.9,.21-1.5-.45-2.23-3.46-3.79-5.89-8.13-6.89-13.23-1.62-8.31,.5-15.65,5.86-22.06,6.93-8.28,16.11-12.12,26.66-13.15,10.43-1.02,20.06,1.32,28.68,7.26,6.32,4.35,10.88,10.15,12.49,17.82,1.37,6.56,.33,12.82-3.28,18.53-6.04,9.55-15.05,14.46-25.94,16.35-2.41,.42-4.85,.64-7.3,.67Z"/>
  <path class="cls-1" d="M40.44,42.58c-.02,2.68-1.89,4.47-4.6,4.4-2.44-.06-4.54-2.19-4.48-4.53,.07-2.44,2.29-4.57,4.71-4.51,2.65,.06,4.38,1.91,4.36,4.64Zm33.07-4.64c-2.44,0-4.63,2.19-4.62,4.6,0,2.37,2.15,4.45,4.57,4.45,2.72,0,4.5-1.77,4.51-4.49,0-2.69-1.83-4.56-4.45-4.55Zm-22.7,6.45c.25,.39,.53,.76,.82,1.12,1.66,1.82,4.48,1.96,6.3,.3,0,0,0,0,0,0,1.71-1.59,1.77-4.81,.12-6.5-1.79-1.83-4.4-1.8-6.24,.08-.4,.41-.76,.85-1.14,1.27-.29,1.26-.85,2.52,.11,3.74h0Z"/>
</svg>