<?xml version="1.0" encoding="UTF-8"?>
<svg id="Layer_1" data-name="Layer 1" xmlns="http://www.w3.org/2000/svg" viewBox="0 0 110 90">
  <defs>
    <style>
      .cls-1 {
        fill: #9b9a9a;
      }

      .cls-2 {
        fill: none;
      }
    </style>
  </defs>
  <rect class="cls-2" width="110" height="90"/>
  <path class="cls-1" d="M84.95,23.07c-6.38-6.38-14.13-9.95-22.99-11.17-12.73-1.75-24.49,.63-34.67,8.82-12.65,10.19-14.47,26.38-4.51,39.26,.63,.8,.75,1.56,.56,2.49-.82,4.06-2.67,7.61-5.11,10.91-.9,1.22-2.69,2.25-1.53,4.12,1.12,1.83,3.01,.87,4.6,.96,.13-.01,.25-.04,.38-.07,5.89-.69,11.11-3.08,15.96-6.37,1.01-.68,1.88-.83,3.02-.47,4.69,1.49,9.51,2.21,14.48,2.33,.78-.04,1.62-.06,2.45-.13,.9-.07,1.79-.2,2.68-.29,9.17-.99,17.29-4.35,24.05-10.71,11.79-11.1,12.04-28.28,.63-39.69Zm-5.92,38.13c-5.62,4.56-12.13,6.8-19.24,7.68-6.45,.8-12.68,.02-18.79-2.02-1.81-.61-3.41-.29-4.94,.73-3.25,2.2-6.78,3.96-10.5,5.22-.36,.12-.71,.33-1.26-.09,1.92-3.25,3.1-6.79,3.68-10.56,.27-1.75-.03-3.31-1.18-4.7-9.98-12.08-6.5-26.15,5.53-34.74,8.74-6.23,18.64-7.63,29.05-6.24,7.95,1.07,14.97,4.2,20.49,10.13,10.11,10.86,8.9,25.04-2.84,34.57Zm-43.49-22.07c2.02,0,3.42,1.35,3.46,3.34s-1.5,3.62-3.47,3.61c-1.96-.02-3.52-1.63-3.5-3.58,0-.01,0-.02,0-.04,.06-1.94,1.52-3.33,3.5-3.33h0Zm38.71,0c2,.03,3.38,1.42,3.38,3.42s-1.58,3.6-3.54,3.53c-1.89-.06-3.4-1.6-3.42-3.5-.01-2.01,1.51-3.48,3.58-3.45h0Zm-15.97,3.49c-.03,1.98-1.45,3.44-3.37,3.48-2.01,.03-3.51-1.51-3.49-3.57s1.49-3.46,3.58-3.4c2,.06,3.31,1.46,3.28,3.49Z"/>
</svg>