<?xml version="1.0" encoding="UTF-8"?>
<svg id="Layer_1" data-name="Layer 1" xmlns="http://www.w3.org/2000/svg" viewBox="0 0 110 90">
  <defs>
    <style>
      .cls-1 {
        fill: #9b9a9a;
      }

      .cls-2 {
        fill: none;
      }
    </style>
  </defs>
  <rect class="cls-2" width="110" height="90"/>
  <path class="cls-1" d="M54.95,10.69c11.82,.37,22.43,3.94,30.97,12.68,10.37,10.63,10.64,26.68,.66,37.67-7.27,8.01-16.49,11.83-27.06,12.92-6.89,.71-13.58-.12-20.14-2.26-.54-.18-1.41,.04-1.9,.39-5.48,3.92-11.45,6.52-18.24,6.92-1.02,.06-2.06-.27-3.09-.41,.39-.89,.63-1.89,1.21-2.64,2.77-3.67,5.28-7.47,6.74-11.89,.35-1.05,.25-1.79-.54-2.64-4.83-5.18-7.55-11.36-7.7-18.43-.16-7.46,2.61-13.94,7.67-19.42,7.81-8.47,17.77-12.05,29-12.77,.75-.05,1.53-.06,2.42-.11ZM19.51,76.64c.72,0,1.05,.03,1.36,0,5.88-.63,10.89-3.33,15.54-6.77,.94-.69,1.74-.91,2.84-.49,5.42,2.07,11.06,2.82,16.84,2.62,10.27-.35,19.51-3.39,27.07-10.58,5.74-5.46,8.77-12.15,8.36-20.16-.48-9.21-5.35-15.93-12.61-21.11-6.05-4.32-12.91-6.5-20.27-7.08-10.63-.83-20.5,1.33-29.17,7.8-6.43,4.8-10.72,11.02-11.58,19.14-.87,8.18,2.13,15.07,7.79,20.86,.86,.88,1.13,1.64,.64,2.72-1.12,2.53-2.14,5.12-3.39,7.58-.93,1.81-2.16,3.47-3.42,5.46Zm15.46-38.87c-2.57-.04-4.69,2.01-4.73,4.58,0,.07,0,.14,0,.21,.03,2.51,2.17,4.51,4.83,4.53s4.63-1.96,4.63-4.62c0-2.72-1.98-4.68-4.75-4.7h0Zm.05,7.3c-1.46-.05-2.6-1.22-2.54-2.61,.07-1.34,1.39-2.5,2.76-2.43,1.32,.07,2.34,1.25,2.3,2.65-.03,1.36-1.16,2.43-2.52,2.4,0,0,0,0-.01,0h0Zm39.16-7.3c-2.6,0-4.63,2.05-4.66,4.69-.03,2.56,2.2,4.66,4.9,4.63,2.6-.03,4.56-1.96,4.57-4.52,0-2.82-1.97-4.81-4.81-4.8h0Zm.23,7.3c-1.4,.07-2.59-1.01-2.66-2.41,0-.02,0-.05,0-.07-.06-1.48,.99-2.62,2.45-2.67,1.54-.06,2.61,.93,2.65,2.45,.03,1.49-1.01,2.65-2.44,2.71h0Zm-19.73-7.3c-2.55,0-4.51,2.11-4.47,4.8,.06,2.52,2.13,4.52,4.64,4.52,2.52,0,4.56-2.03,4.56-4.55,0,0,0-.02,0-.03,0-2.71-2.03-4.75-4.75-4.74h0Zm.12,7.29c-1.44,.07-2.6-1.01-2.65-2.49-.05-1.53,.94-2.63,2.44-2.68,1.43-.05,2.67,1.08,2.72,2.47,.03,1.43-1.08,2.63-2.51,2.71h0Z"/>
</svg>